HIERARCHY
ROOT hip
{
  OFFSET 0 0 0
  CHANNELS 6 Xposition Yposition Zposition Zrotation Yrotation Xrotation
  JOINT abdomen
  {
    OFFSET 0 20.6881 -0.73152
    CHANNELS 3 Zrotation Xrotation Yrotation
    JOINT chest
    {
      OFFSET 0 11.7043 -0.48768
      CHANNELS 3 Zrotation Xrotation Yrotation
      JOINT neck
      {
        OFFSET 0 22.1894 -2.19456
        CHANNELS 3 Zrotation Xrotation Yrotation
        JOINT head
        {
          OFFSET -0.24384 7.07133 1.2192
          CHANNELS 3 Zrotation Xrotation Yrotation
          JOINT leftEye
          {
            OFFSET 4.14528 8.04674 8.04672
            CHANNELS 3 Zrotation Xrotation Yrotation
            End Site
            {
              OFFSET 1 0 0
            }
          }
          JOINT rightEye
          {
            OFFSET -3.6576 8.04674 8.04672
            CHANNELS 3 Zrotation Xrotation Yrotation
            End Site
            {
              OFFSET 1 0 0
            }
          }
        }
      }
      JOINT rCollar
      {
        OFFSET -2.68224 19.2634 -4.8768
        CHANNELS 3 Zrotation Xrotation Yrotation
        JOINT rShldr
        {
          OFFSET -8.77824 -1.95073 1.46304
          CHANNELS 3 Zrotation Xrotation Yrotation
          JOINT rForeArm
          {
            OFFSET -28.1742 -1.7115 0.48768
            CHANNELS 3 Zrotation Xrotation Yrotation
            JOINT rHand
            {
              OFFSET -22.5879 0.773209 7.07136
              CHANNELS 3 Zrotation Xrotation Yrotation
              JOINT rThumb1
              {
                OFFSET -1.2192 -0.487915 3.41376
                CHANNELS 3 Zrotation Xrotation Yrotation
                JOINT rThumb2
                {
                  OFFSET -3.37035 -0.52449 3.41376
                  CHANNELS 3 Zrotation Xrotation Yrotation
                  End Site
                  {
                    OFFSET -1.78271 -1.18214 1.43049
                  }
                }
              }
              JOINT rIndex1
              {
                OFFSET -7.75947 0.938293 5.60832
                CHANNELS 3 Zrotation Xrotation Yrotation
                JOINT rIndex2
                {
                  OFFSET -2.54057 -0.884171 1.56538
                  CHANNELS 3 Zrotation Xrotation Yrotation
                  End Site
                  {
                    OFFSET -1.62519 -0.234802 1.16502
                  }
                }
              }
              JOINT rMid1
              {
                OFFSET -8.24714 1.18213 3.41376
                CHANNELS 3 Zrotation Xrotation Yrotation
                JOINT rMid2
                {
                  OFFSET -3.10165 -0.590103 1.0647
                  CHANNELS 3 Zrotation Xrotation Yrotation
                  End Site
                  {
                    OFFSET -2.48547 -0.328903 0.83742
                  }
                }
              }
              JOINT rRing1
              {
                OFFSET -8.82822 0.546677 1.51678
                CHANNELS 3 Zrotation Xrotation Yrotation
                JOINT rRing2
                {
                  OFFSET -2.60934 -0.819778 -0.0198488
                  CHANNELS 3 Zrotation Xrotation Yrotation
                  End Site
                  {
                    OFFSET -2.33842 -0.294052 0.168128
                  }
                }
              }
              JOINT rPinky1
              {
                OFFSET -8.27202 -0.0477905 -0.4584
                CHANNELS 3 Zrotation Xrotation Yrotation
                JOINT rPinky2
                {
                  OFFSET -1.82734 -0.647385 -0.700984
                  CHANNELS 3 Zrotation Xrotation Yrotation
                  End Site
                  {
                    OFFSET -1.69225 -0.51767 -0.607171
                  }
                }
              }
            }
          }
        }
      }
      JOINT lCollar
      {
        OFFSET 2.68224 19.2634 -4.8768
        CHANNELS 3 Zrotation Xrotation Yrotation
        JOINT lShldr
        {
          OFFSET 8.77824 -1.95073 1.46304
          CHANNELS 3 Zrotation Xrotation Yrotation
          JOINT lForeArm
          {
            OFFSET 28.1742 -1.7115 0.48768
            CHANNELS 3 Zrotation Xrotation Yrotation
            JOINT lHand
            {
              OFFSET 22.5879 0.773209 7.07136
              CHANNELS 3 Zrotation Xrotation Yrotation
              JOINT lThumb1
              {
                OFFSET 1.2192 -0.487915 3.41376
                CHANNELS 3 Zrotation Xrotation Yrotation
                JOINT lThumb2
                {
                  OFFSET 3.37035 -0.52449 3.41376
                  CHANNELS 3 Zrotation Xrotation Yrotation
                  End Site
                  {
                    OFFSET 1.78271 -1.18214 1.43049
                  }
                }
              }
              JOINT lIndex1
              {
                OFFSET 7.75947 0.938293 5.60832
                CHANNELS 3 Zrotation Xrotation Yrotation
                JOINT lIndex2
                {
                  OFFSET 2.54057 -0.884171 1.56538
                  CHANNELS 3 Zrotation Xrotation Yrotation
                  End Site
                  {
                    OFFSET 1.62519 -0.234802 1.16502
                  }
                }
              }
              JOINT lMid1
              {
                OFFSET 8.24714 1.18213 3.41376
                CHANNELS 3 Zrotation Xrotation Yrotation
                JOINT lMid2
                {
                  OFFSET 3.10165 -0.590103 1.0647
                  CHANNELS 3 Zrotation Xrotation Yrotation
                  End Site
                  {
                    OFFSET 2.48547 -0.328903 0.83742
                  }
                }
              }
              JOINT lRing1
              {
                OFFSET 8.82822 0.546677 1.51678
                CHANNELS 3 Zrotation Xrotation Yrotation
                JOINT lRing2
                {
                  OFFSET 2.60934 -0.819778 -0.0198488
                  CHANNELS 3 Zrotation Xrotation Yrotation
                  End Site
                  {
                    OFFSET 2.33842 -0.294052 0.168128
                  }
                }
              }
              JOINT lPinky1
              {
                OFFSET 8.27202 -0.0477905 -0.4584
                CHANNELS 3 Zrotation Xrotation Yrotation
                JOINT lPinky2
                {
                  OFFSET 1.82734 -0.647385 -0.700984
                  CHANNELS 3 Zrotation Xrotation Yrotation
                  End Site
                  {
                    OFFSET 1.69225 -0.51767 -0.607171
                  }
                }
              }
            }
          }
        }
      }
    }
  }
  JOINT rButtock
  {
    OFFSET -8.77824 4.35084 1.2192
    CHANNELS 3 Zrotation Xrotation Yrotation
    JOINT rThigh
    {
      OFFSET 0 -1.70687 -2.19456
      CHANNELS 3 Zrotation Xrotation Yrotation
      JOINT rShin
      {
        OFFSET 0 -36.8199 0.73152
        CHANNELS 3 Zrotation Xrotation Yrotation
        JOINT rFoot
        {
          OFFSET 0.73152 -45.1104 -5.12064
          CHANNELS 3 Zrotation Xrotation Yrotation
          End Site
          {
            OFFSET -1.1221 -3.69964 12.103
          }
        }
      }
    }
  }
  JOINT lButtock
  {
    OFFSET 8.77824 4.35084 1.2192
    CHANNELS 3 Zrotation Xrotation Yrotation
    JOINT lThigh
    {
      OFFSET 0 -1.70687 -2.19456
      CHANNELS 3 Zrotation Xrotation Yrotation
      JOINT lShin
      {
        OFFSET 0 -36.8199 0.73152
        CHANNELS 3 Zrotation Xrotation Yrotation
        JOINT lFoot
        {
          OFFSET -0.73152 -45.1104 -5.12064
          CHANNELS 3 Zrotation Xrotation Yrotation
          End Site
          {
            OFFSET 1.1221 -3.69964 12.103
          }
        }
      }
    }
  }
}
MOTION
Frames:	4
Frame Time:	0.03333
0.08163997048869304 58.597941417966915 0.3959455325771103 -78.42527770996094 -0.8630618453025818 5.173483371734619 -72.80406188964844 0.2619924545288086 23.892202377319336 63.98112106323242 -0.11046343296766281 8.59148120880127 -81.20660400390625 -0.12017257511615753 39.27245330810547 81.58328247070312 -0.4719931483268738 53.454830169677734 4.169546127319336 0.01993187889456749 -14.827276229858398 3.562178134918213 -0.02516220323741436 -18.370502471923828 9.46018123626709 0.10426203906536102 -10.777036666870117 90.36974334716797 -0.2690759003162384 -103.95623779296875 -88.92266082763672 -0.39972496032714844 140.24159240722656 -48.16559600830078 -1.295816421508789 -2.6084108352661133 -12.63038444519043 0.07595321536064148 9.72270679473877 -0.5106711387634277 -0.14264309406280518 8.667476654052734 0.5258649587631226 0.14768366515636444 1.45116126537323 83.32294464111328 0.1685934215784073 13.30788803100586 18.331256866455078 0.003999289125204086 -4.740223407745361 73.12379455566406 -0.054224662482738495 2.4963228702545166 6.428405284881592 0.04187938943505287 -1.4062892198562622 85.02476501464844 0.10690927505493164 14.05420970916748 -3.276958703994751 -0.19595322012901306 -13.516311645507812 68.46800231933594 0.11202052235603333 -0.3939296305179596 4.55782413482666 -0.2372617870569229 13.232775688171387 -89.19949340820312 -0.7677327990531921 -20.646303176879883 88.82852172851562 -0.3745429515838623 -158.3312530517578 51.47296905517578 0.5865172743797302 -13.358420372009277 14.091618537902832 0.13795757293701172 -22.072172164916992 12.277083396911621 -0.02748916484415531 9.84357738494873 -7.149074554443359 0.19169583916664124 -2.9844110012054443 -84.61407470703125 -0.1286725401878357 38.03372573852539 -4.577409744262695 -0.04397065192461014 5.386021614074707 -74.16923522949219 0.006082812324166298 0.107853002846241 -6.013660430908203 -0.20404954254627228 20.239097595214844 -85.70479583740234 0.03432229161262512 7.336123943328857 -3.839543342590332 0.11225710809230804 -3.1437108516693115 -75.39486694335938 -0.26576319336891174 16.5184383392334 0.39938291907310486 -0.14553582668304443 10.842073440551758 -87.56790161132812 -0.6893787980079651 -12.402301788330078 -47.11113739013672 2.5025506019592285 1.916898488998413 -79.46228790283203 -0.39737287163734436 -33.5130729675293 -1.4988542795181274 0.10825812816619873 -0.08730319142341614 88.59185028076172 0.8313952088356018 -175.3334503173828 29.322437286376953 1.6421303749084473 -2.4287948608398438 78.52587890625 0.05797294154763222 -30.483306884765625
-0.3091101360075647 62.20044956360927 -0.18995471117234197 -83.60442352294922 -1.9898265600204468 151.9977264404297 -58.076988220214844 0.4983918368816376 1.0956066846847534 50.04851531982422 -0.30599620938301086 -1.495768427848816 -72.0732421875 0.1385209560394287 -4.969757080078125 84.5372314453125 -0.07653548568487167 11.819051742553711 -2.6024460792541504 -0.39313268661499023 1.6667484045028687 3.764878273010254 -0.05286227911710739 4.5761027336120605 4.579900741577148 -0.1751718819141388 15.148421287536621 89.25205993652344 -1.009145975112915 64.25225067138672 -87.89340209960938 -1.1605415344238281 54.70058822631836 -43.4582633972168 0.8914639949798584 0.05823417752981186 -3.8353118896484375 -0.03329142555594444 -1.498560905456543 11.906610488891602 0.050872802734375 -0.6609140038490295 -12.879812240600586 -0.18560132384300232 -8.97173023223877 75.34794616699219 -0.0063645620830357075 -4.852500915527344 6.390221118927002 0.1004718691110611 4.682948112487793 55.37686538696289 -0.054494455456733704 2.419511318206787 -0.9726665019989014 -0.02166997455060482 17.182615280151367 79.28528594970703 -0.08160562813282013 4.211134910583496 12.460445404052734 -0.11406210064888 9.426631927490234 56.58124542236328 0.12257680296897888 10.667709350585938 -4.71460485458374 -0.06831236183643341 -5.927944183349609 -90.08621978759766 1.4375193119049072 12.365890502929688 88.26324462890625 -0.12746845185756683 -38.46363830566406 43.155128479003906 -1.568898320198059 22.6697998046875 3.0002381801605225 0.18043605983257294 9.182745933532715 -14.118019104003906 0.19561517238616943 -3.539276361465454 6.750528335571289 0.052669085562229156 17.30403709411621 -81.04289245605469 0.10136443376541138 -10.002752304077148 -15.857497215270996 -0.05227522924542427 3.5571351051330566 -55.93326950073242 0.06335583329200745 0.924126386642456 4.67495059967041 -0.11451064795255661 -22.453413009643555 -79.03931427001953 0.09076091647148132 -0.38065552711486816 2.5308778285980225 -0.268612802028656 3.4239888191223145 -54.24160385131836 0.21228553354740143 -3.6921093463897705 5.3412370681762695 -0.12265443801879883 -10.080350875854492 -84.37396240234375 -0.7235008478164673 0.6607944369316101 -22.209674835205078 3.3267431259155273 8.78926944732666 -70.2706527709961 0.433459997177124 3.9604713916778564 -7.060431957244873 0.5009100437164307 11.65571117401123 87.46600341796875 0.038475580513477325 -23.315284729003906 25.649169921875 2.418769598007202 12.576292037963867 76.16111755371094 -0.5583571791648865 36.88131332397461
-0.7243445496876141 60.457057438341856 -0.23308929678199639 -3.274137020111084 -5.045377254486084 9.387632369995117 -2.7128524780273438 13.856450080871582 3.4070794582366943 5.022473335266113 -9.613350868225098 0.7670858502388 -5.554001331329346 13.514055252075195 -4.8963623046875 8.317328453063965 -22.254615783691406 -7.355793476104736 -0.28014880418777466 -0.6853742003440857 -0.6560289263725281 -0.7892512679100037 -0.8742715716362 -0.8360835313796997 1.5991663932800293 0.056563373655080795 -0.5423192381858826 47.03868865966797 32.963741302490234 18.86216163635254 -21.4366455078125 -21.807159423828125 62.46746826171875 -1.8796559572219849 -11.038310050964355 -1.6740435361862183 -0.20841547846794128 1.611365795135498 0.6200420260429382 1.655666470527649 -0.06678350269794464 -0.6911035180091858 -0.6981239914894104 0.44160225987434387 -0.535038411617279 7.259103775024414 5.2362060546875 0.8698756694793701 1.0341070890426636 0.3697322905063629 -1.5350855588912964 3.20774245262146 0.11582978814840317 -0.4343288242816925 0.0874481126666069 0.5686567425727844 0.5972984433174133 8.978602409362793 0.23287701606750488 0.41827481985092163 0.791515588760376 -0.9849292039871216 -0.2968369424343109 2.7571144104003906 -0.18445098400115967 -0.12709154188632965 -0.1273915022611618 -1.3095462322235107 -0.002996638650074601 -59.65825271606445 39.88094711303711 -19.430652618408203 22.25226593017578 -16.594221115112305 -54.61491012573242 1.5299739837646484 -5.51201057434082 0.09801673144102097 0.9159533381462097 0.7628653049468994 0.533087968826294 -0.8181931972503662 0.2400040328502655 -0.32663634419441223 0.2947189509868622 0.1387895792722702 -0.4308878481388092 -8.015223503112793 4.895169258117676 0.10156092792749405 -1.5134289264678955 -0.11177203804254532 0.07055649906396866 -3.2212202548980713 0.7946712970733643 0.512834906578064 0.40890222787857056 -1.0348156690597534 -0.6708993315696716 -9.31535816192627 0.9439634680747986 -0.0602739192545414 0.018333300948143005 0.47842520475387573 0.5997226238250732 -1.9055132865905762 -1.2032464742660522 -0.4451802968978882 0.16877546906471252 -0.46528130769729614 -0.07506626099348068 -17.575611114501953 -40.25858688354492 -12.502270698547363 0.4788847267627716 57.6934700012207 1.8366031646728516 -3.6310133934020996 -10.348296165466309 -8.813741683959961 -0.7730459570884705 0.5292494297027588 -0.13388915359973907 17.525869369506836 -34.98599624633789 10.874180793762207 0.7824229598045349 56.165985107421875 -1.543778896331787 7.217830657958984 -12.833120346069336 14.413749694824219
-1.2986547094674952 63.30879802060558 -0.8130731026063366 -2.7519025802612305 -5.2744550704956055 7.9115986824035645 -1.8733294010162354 9.151240348815918 3.7238168716430664 4.910136699676514 -6.910161018371582 0.8532459735870361 -7.597889423370361 13.849266052246094 -6.12859582901001 9.27156925201416 -20.161270141601562 -10.413037300109863 -0.46454349160194397 -1.096125841140747 0.7673938274383545 -0.09494701027870178 -0.5527969002723694 0.7851864099502563 1.7912176847457886 -0.4671648144721985 1.3644167184829712 53.218570709228516 31.642061233520508 15.506776809692383 -17.85981559753418 -11.852928161621094 41.34282302856445 -1.5788458585739136 -1.5205599069595337 0.9280964136123657 0.2715563178062439 1.0473617315292358 0.8049505949020386 2.2698769569396973 -0.5100597739219666 0.34065282344818115 -1.170539140701294 -0.38825151324272156 -0.3443315625190735 7.674265384674072 5.206079483032227 2.6063947677612305 0.448566198348999 0.24731490015983582 0.06958604604005814 3.1362111568450928 1.2175599336624146 1.2598223686218262 0.590806782245636 0.027614792808890343 2.1508097648620605 9.958268165588379 0.0896732360124588 1.9059194326400757 0.5074189305305481 -0.6934621930122375 0.5901128053665161 1.8529161214828491 -0.650627851486206 0.2519994378089905 -1.0474547147750854 -1.4836620092391968 -0.5489197373390198 -66.85823059082031 33.24224090576172 -14.859012603759766 17.448930740356445 -8.198463439941406 -32.59901809692383 1.267823576927185 8.438267707824707 -0.02807828225195408 0.748813807964325 0.0057553634978830814 0.9202289581298828 -1.1685841083526611 0.13463455438613892 0.9792094826698303 -0.1327172964811325 -0.2878737449645996 -0.4850984215736389 -7.2945451736450195 5.173086643218994 -0.37752169370651245 -1.192000150680542 -0.41978907585144043 0.48431652784347534 -4.167938709259033 0.033835723996162415 0.5559545159339905 1.4641648530960083 -1.437312364578247 0.30016618967056274 -9.58945083618164 -0.04088691622018814 0.06654231250286102 -0.2817528247833252 0.9682744741439819 0.8018305897712708 -2.0181190967559814 -1.0182499885559082 0.059309832751750946 0.26183614134788513 -1.509412169456482 1.861604928970337 -7.186174392700195 -29.28029441833496 -3.569267988204956 0.5761188268661499 44.80087661743164 2.3953285217285156 -5.609793663024902 -6.7400312423706055 -10.510627746582031 -1.181083083152771 0.9713429808616638 0.9586256742477417 8.514954566955566 -25.967041015625 3.639957904815674 0.07820221781730652 45.81178283691406 0.22059161961078644 6.00679349899292 -10.763340950012207 16.449264526367188
